<svg xmlns="http://www.w3.org/2000/svg" width="45" height="45" viewBox="0 0 45 45"><defs><linearGradient id="a" x1="0" x2="0" y1="0" y2="1"><stop offset="0" stop-color="#e6fdff"/><stop offset="1" stop-color="#a5f3fc"/></linearGradient></defs><g fill="none" stroke="#22d3ee" stroke-linecap="round" stroke-linejoin="round" stroke-opacity=".18" stroke-width="4.4"><path d="M11 34h23l1.5 1.5v2L34 39H11l-1.5-1.5v-2Z"/><path d="M13.5 34 15 17h15l1.5 17Z"/><path d="M12 14.5v-7h4.5v3H20v-3h5v3h3.5v-3H33v7Z"/><path d="M13 14h19l1 1v1.5l-1 1H13l-1-1V15Z"/></g><g fill="none" stroke="#22d3ee" stroke-linecap="round" stroke-linejoin="round" stroke-opacity=".36" stroke-width="2.9"><path d="M11 34h23l1.5 1.5v2L34 39H11l-1.5-1.5v-2Z"/><path d="M13.5 34 15 17h15l1.5 17Z"/><path d="M12 14.5v-7h4.5v3H20v-3h5v3h3.5v-3H33v7Z"/><path d="M13 14h19l1 1v1.5l-1 1H13l-1-1V15Z"/></g><g fill="url(#a)" stroke="#06b6d4" stroke-linejoin="round" stroke-width="1.5"><path d="M11 34h23l1.5 1.5v2L34 39H11l-1.5-1.5v-2Z"/><path d="M13.5 34 15 17h15l1.5 17Z"/><path d="M12 14.5v-7h4.5v3H20v-3h5v3h3.5v-3H33v7Z"/><path d="M13 14h19l1 1v1.5l-1 1H13l-1-1V15Z"/></g><g fill="none" stroke="#0e7490" stroke-linecap="round" stroke-linejoin="round"><path d="M13 36.5h19"/><path d="M16.2 21h12.6"/><path d="M15.7 30.5h13.6"/><path d="M22.5 23.8v3.6"/></g></svg>