<?xml version="1.0" encoding="utf-8" ?><svg xmlns="http://www.w3.org/2000/svg" xmlns:xlink="http://www.w3.org/1999/xlink" width="373" height="419" viewBox="0 0 373 419"><path fill="#1C1828" d="M157.861 67.4626C154.124 62.017 150.622 57.1379 149.083 50.5958C146.697 40.5941 148.428 30.0533 153.887 21.3399C159.318 12.6836 167.999 6.57158 177.979 4.37623C192.011 1.23779 206.706 5.27591 216.322 16.1336C221.732 22.2419 224.137 28.5408 225.863 36.3856C223.485 44.6042 222.459 44.081 217.583 49.8352C218.315 50.7112 219.594 52.3934 220.479 52.9378C221.522 52.4285 222.567 51.8896 223.604 51.3653C221.88 57.9711 220.125 61.2322 216.532 67.1467C231.35 72.6848 243.657 79.0809 254.872 90.5149C256.817 92.4981 260.201 96.0643 261.721 98.3359C264.518 94.9617 278.532 76.5001 280.954 75.6067L281.429 75.8462C281.8 77.008 281.727 81.6425 281.744 83.1488C281.802 89.704 281.898 96.2589 282.032 102.813C282.072 104.718 282.03 111.966 282.614 113.209C284.882 118.04 288.519 123.211 290.731 128.265C296.292 126.756 302.489 125.204 307.478 122.234C308.199 118.562 308.196 114.102 308.877 110.928C311.449 108.216 319.061 102.633 322.437 99.8811C329.46 94.0757 336.537 88.3355 343.667 82.6614C346.199 80.6703 353.195 75.291 355.942 73.7714C354.179 78.7654 352.736 85.4706 351.308 90.7287C349.178 98.5729 347.274 106.378 345.303 114.315C343.626 121.069 342.54 129.01 340.085 135.483C339.408 137.266 335.842 138.952 334.119 140.193C324.345 147.236 316.251 155.595 314.787 168.114C312.779 179.86 312.989 187.768 317.029 199.015C317.673 200.81 320.395 208.218 320.703 209.658C315.4 219.604 305.76 230.676 297.781 238.675C293.94 242.525 290.051 245.374 286.391 249.772C284.408 257.115 283.982 265.254 283.005 272.786C287.46 275.925 293.997 280.561 294.985 286.221C296.444 294.58 285.089 298.378 286.564 307.071C289.174 322.445 310.081 320.03 312.631 335.237C313.829 342.377 312.086 349.263 309.4 355.83C316.468 357.455 330.355 362.373 333.967 369.133C343.053 386.136 333.924 406.686 318.383 416.201C314.852 418.363 305.083 417.226 300.685 417.094C292.477 416.865 284.266 416.792 276.055 416.874C273.561 416.915 270.671 416.872 268.218 417.419C267.613 417.554 267.498 418.435 267.404 419L109.156 419C109.083 418.5 108.873 417.108 108.328 417.077C92.477 416.18 76.4558 417.839 60.5629 417.638C59.7426 417.627 58.3882 417.296 57.7746 416.924C42.0602 407.405 32.8461 387.544 41.4094 370.08C45.891 360.955 57.1692 358.735 66.0091 355.92C63.5563 349.549 61.9058 343.107 62.6295 336.288C63.8748 324.555 74.0117 323.133 81.8454 317.184C84.2442 315.362 85.7875 313.22 87.0637 310.581C92.0906 300.187 79.6065 295.499 80.2395 286.989C80.6326 281.706 88.358 276.218 92.4406 273.086C91.5779 266.787 90.6833 254.573 88.9199 248.739C86.3566 246.81 83.4923 244.203 80.8487 242.15C71.7395 235.078 62.9608 227.612 58.7446 216.501C59.6295 213.446 71.9778 193.24 74.1663 191.251C73.8175 189.722 71.7238 184.45 71.0444 182.798C64.9218 167.904 56.5102 153.055 44.2887 142.31C42.2379 140.508 34.5151 136.483 34.2225 135.593C32.706 130.976 31.2798 123.602 30.0935 118.78C27.5887 108.877 25.0191 98.9917 22.3847 89.123C21.0659 84.1037 19.7893 78.3229 18.3152 73.4579C19.4095 74.398 20.5427 75.1815 21.7097 76.0188C33.5968 84.5472 44.5329 94.3392 56.2207 103.142C58.3206 104.724 63.6009 108.745 64.8704 110.706C65.8632 112.24 66.9785 120.556 67.3789 122.724C72.5801 125.416 77.9697 126.796 83.3684 128.965C84.833 126.339 90.2449 116.316 90.8639 114.039C92.7878 106.963 92.5034 95.6598 92.536 88.2348C92.5567 83.5332 92.6417 78.3106 92.5625 73.6547C98.8756 81.0207 107.189 90.5974 112.657 98.6065C115.242 95.9467 117.593 92.9177 120.225 90.2732C121.209 89.2835 122.372 88.0772 123.195 86.9765C121.178 83.4299 118.325 79.3125 116.177 75.6468C111.909 68.3612 110.379 64.0219 108.233 56.06C110.15 52.6368 116.471 42.9565 120.138 40.3084C120.449 40.0839 120.607 40.285 121.041 40.491C123.972 43.9444 116.138 53.966 116.59 57.4746C117.603 65.3481 126.793 75.7391 131.471 80.9842C138.199 75.0145 149.534 70.6237 157.861 67.4626ZM306.256 209.39C306.334 201.354 305.235 193.35 302.994 185.633C300.752 189.144 290.79 222.362 290.735 226.689C296.355 221.273 302.219 216.152 306.256 209.39ZM71.4899 214.388C73.3852 216.264 75.1934 218.015 77.2242 219.739C79.2168 221.431 81.5652 223.012 83.4735 224.754C83.6269 223.259 78.3555 202.806 77.4201 201.461C75.0725 205.963 73.0029 209.514 71.4899 214.388Z"/><path fill="#39394F" d="M178.097 71.4973C179.324 71.4103 180.555 71.3624 181.785 71.3537C180.512 74.096 179.168 78.1469 178.102 81.076C176.175 86.5002 174.11 91.8743 171.908 97.193C171.194 98.9001 169.183 103.476 168.037 104.914C166.229 107.536 163.765 112.219 162.55 115.165C157.945 126.333 155.201 117.966 149.212 117.568C149.04 115.224 148.984 113.75 149.365 111.432C149.924 107.787 150.591 105.16 149.532 101.44C148.187 96.7165 145.748 93.1118 141.506 90.6443C139.364 89.6881 138.076 89.1507 136.444 87.4792C138.618 85.8768 140.947 84.3434 143.191 82.8267C148.653 77.8184 163.242 73.0115 170.671 71.7863C172.92 71.4152 175.771 71.4667 178.097 71.4973Z"/><path fill="#4F5065" d="M143.191 82.8267C148.653 77.8184 163.242 73.0115 170.671 71.7863C172.92 71.4152 175.771 71.4667 178.097 71.4973C177.845 72.7873 176.785 74.8229 176.162 76.053C174.079 80.1627 169.767 81.5785 166.304 84.2747C159.871 89.2821 154.307 96.3377 152.752 104.501C152.313 106.672 152.239 111.305 151.155 112.361C150.17 112.445 149.987 112.166 149.365 111.432C149.924 107.787 150.591 105.16 149.532 101.44C148.187 96.7165 145.748 93.1118 141.506 90.6443C139.364 89.6881 138.076 89.1507 136.444 87.4792C138.618 85.8768 140.947 84.3434 143.191 82.8267Z"/><path fill="#604C90" d="M143.191 82.8267C145.77 86.3906 145.267 88.204 141.506 90.6443C139.364 89.6881 138.076 89.1507 136.444 87.4792C138.618 85.8768 140.947 84.3434 143.191 82.8267Z"/><path fill="#39394F" d="M158.429 82.901L158.972 83.0779C160.486 85.0227 158.349 86.9135 156.97 88.3342L156.491 88.2027C154.926 86.3726 157.145 84.2814 158.429 82.901Z"/><path fill="#7344B1" d="M311.337 166.976C312.751 167.569 313.303 167.802 314.787 168.114C312.779 179.86 312.989 187.768 317.029 199.015C317.673 200.81 320.395 208.218 320.703 209.658C315.4 219.604 305.76 230.676 297.781 238.675C293.94 242.525 290.051 245.374 286.391 249.772C285.575 245.947 289.293 230.773 290.735 226.689C296.355 221.273 302.219 216.152 306.256 209.39C306.334 201.354 305.235 193.35 302.994 185.633C303.86 180.975 308.923 171.111 311.337 166.976Z"/><path fill="#7344B1" d="M108.233 56.06C110.15 52.6368 116.471 42.9565 120.138 40.3084C120.449 40.0839 120.607 40.285 121.041 40.491C123.972 43.9444 116.138 53.966 116.59 57.4746C117.603 65.3481 126.793 75.7391 131.471 80.9842C131.894 82.7511 135.113 86.0088 136.444 87.4792C138.076 89.1507 139.364 89.6881 141.506 90.6443C145.748 93.1118 148.187 96.7165 149.532 101.44C150.591 105.16 149.924 107.787 149.365 111.432C148.984 113.75 149.04 115.224 149.212 117.568C149.41 120.541 150.018 123.195 149.985 126.162L149.983 126.506C149.982 126.574 149.98 126.643 149.978 126.712C149.088 127.324 148.271 128.011 147.204 128.136C145.523 127.41 141.003 125.808 139.233 125.21C139.19 125.105 140.298 116.022 140.378 115.26C141.538 110.365 139.884 103.8 137.725 99.3185C133.674 96.5866 132.799 98.5013 129.928 94.088C127.28 91.3268 125.78 90.038 123.195 86.9765C121.178 83.4299 118.325 79.3125 116.177 75.6468C111.909 68.3612 110.379 64.0219 108.233 56.06Z"/><path fill="#7344B1" d="M74.1663 191.251C75.0254 193.349 77.3883 199.296 77.4201 201.461C75.0725 205.963 73.0029 209.514 71.4899 214.388C73.3852 216.264 75.1934 218.015 77.2242 219.739C79.2168 221.431 81.5652 223.012 83.4735 224.754C85.0049 228.738 88.9134 244.735 88.9199 248.739C86.3566 246.81 83.4923 244.203 80.8487 242.15C71.7395 235.078 62.9608 227.612 58.7446 216.501C59.6295 213.446 71.9778 193.24 74.1663 191.251Z"/><defs><linearGradient id="gradient_0" gradientUnits="userSpaceOnUse" x1="130.2635" y1="118.51825" x2="128.43555" y2="94.832146"><stop offset="0" stop-color="#35305C"/><stop offset="1" stop-color="#544C76"/></linearGradient></defs><path fill="url(#gradient_0)" d="M129.928 94.088C132.799 98.5013 133.674 96.5866 137.725 99.3185C139.884 103.8 141.538 110.365 140.378 115.26C140.298 116.022 139.19 125.105 139.233 125.21L138.975 125.431C137.392 125.601 130.949 120.895 130.422 119.188C125.942 115.389 123.177 111.368 118.127 107.111C119.59 104.943 127.974 95.1968 129.928 94.088Z"/><path fill="#30215C" d="M130.422 119.188C132.875 118.028 132.761 112.528 135.654 111.252C137.611 111.094 138.69 113.245 140.281 114.391L140.378 115.26C140.298 116.022 139.19 125.105 139.233 125.21L138.975 125.431C137.392 125.601 130.949 120.895 130.422 119.188Z"/><path fill="#30215C" d="M149.212 117.568C155.201 117.966 157.945 126.333 162.55 115.165C163.765 112.219 166.229 107.536 168.037 104.914C167.481 110.718 161.416 122.466 156.699 125.907C154.01 127.868 152.86 128.465 149.649 129.054L147.204 128.136C148.271 128.011 149.088 127.324 149.978 126.712C149.98 126.643 149.982 126.574 149.983 126.506L149.985 126.162C150.018 123.195 149.41 120.541 149.212 117.568Z"/><path fill="#48317B" d="M217.583 49.8352C218.315 50.7112 219.594 52.3934 220.479 52.9378C218.441 54.4301 212.667 60.4593 210.703 62.4376C212.469 57.5592 213.96 53.7386 217.583 49.8352Z"/><defs><linearGradient id="gradient_1" gradientUnits="userSpaceOnUse" x1="133.16269" y1="187.15138" x2="66.075768" y2="204.84155"><stop offset="0" stop-color="#2C2C39"/><stop offset="1" stop-color="#404159"/></linearGradient></defs><path fill="url(#gradient_1)" d="M46.0116 131.639C47.2984 131.861 48.5879 132.244 49.7588 132.818C58.0462 136.877 66.3998 140.931 74.7042 144.94C74.399 145.187 73.087 146.169 73.151 146.399C75.7511 155.709 84.293 164.036 89.031 172.176C91.1667 175.845 92.2555 179.527 93.1559 182.634C92.2512 183.191 91.1404 183.824 90.3252 184.477C90.8543 185.532 91.7938 186.5 92.5563 187.41C98.9046 194.985 104.693 202.183 114.478 205.427C114.693 205.499 114.909 205.566 115.126 205.628C117.302 206.317 125.775 208.873 127.416 209.78C134.083 213.004 141.657 219.81 144.023 226.944C147.196 236.515 143.448 245.894 139.3 254.493C137.351 258.534 136.206 260.476 132.774 263.34L132.869 263.68L134.357 264.244L134.488 264.575C133.091 266.05 121.12 267.132 118.71 267.196C118.455 267.203 118.199 267.207 117.944 267.208C115.591 261.899 114.281 258.769 110.779 254.15C106.767 248.859 97.4989 244.53 96.324 238.212C95.4011 235.363 93.8955 231.958 93.1525 229.132C91.2026 221.713 89.3952 214.268 87.4125 206.851C86.6117 205.581 85.828 201.185 85.2474 199.594C83.8295 195.71 82.6061 191.721 81.2529 187.806C78.5442 179.942 75.2261 172.302 71.329 164.954C67.1503 156.952 62.4807 149.86 56.5612 143.053C53.9289 140.025 47.8681 134.704 46.0116 131.639Z"/><path fill="#3E3E4D" d="M115.126 205.628C117.302 206.317 125.775 208.873 127.416 209.78C127.037 210.637 126.662 211.973 126.743 212.984C127.499 222.415 127.664 232.032 126.614 241.45C126.307 244.201 125.782 254.15 124.267 255.503C123.485 254.482 122.963 245.776 122.391 243.529C119.777 233.26 117.698 222.862 116.277 212.355C115.969 210.076 115.349 207.955 115.126 205.628Z"/><path fill="#4F5065" d="M87.4125 206.851L87.6841 206.808C89.0734 212.2 90.8325 217.594 91.9051 223.094C91.9433 223.289 92.1698 223.523 92.2945 223.663C93.0315 223.626 94.1907 223.392 94.8684 223.109C94.5032 219.333 92.8585 215.615 92.526 211.804C92.4221 210.614 91.6192 209.768 91.7936 208.395L91.9409 208.395L91.9795 208.671C92.307 210.919 93.2665 213.772 93.7386 216.143C95.0453 222.703 96.8421 229.366 97.1132 236.067C97.1637 237.316 97.6854 238.018 97.3573 239.187L97.0002 239.223C96.7162 238.838 96.5564 238.636 96.324 238.212C95.4011 235.363 93.8955 231.958 93.1525 229.132C91.2026 221.713 89.3952 214.268 87.4125 206.851Z"/><path fill="#3E3E4D" d="M108.271 223.074C114.701 226.088 111.013 238.408 108.727 243.052C107.464 243.035 106.077 242.781 105.281 241.759C105.491 240.059 107.047 237.867 107.528 234.99C108.207 230.939 107.647 226.732 108.271 223.074Z"/><path fill="#7344B1" d="M224.301 136.283C248.545 131.195 260.163 112.191 274.949 95.1481C274.806 99.7589 274.993 108.006 274.594 112.194C274.4 119.386 274.459 129.768 277.419 136.267C278.73 139.148 280.695 141.925 282.555 144.498C279.563 143.11 275.969 140.427 273.308 138.327C270.027 146.276 265.36 154.261 261.698 162.087C260.323 165.025 257.763 168.667 256.654 171.548C256.773 173.399 255.585 174.313 256.342 175.512C255.575 177.234 254.514 178.819 255.041 180.504C254.408 181.312 254.374 181.64 253.519 181.919C252.918 181.66 252.927 181.559 252.575 181.011C251.827 179.04 251.413 177.408 249.243 176.845C249.632 176.851 249.648 176.804 250.036 176.696L250.031 176.43C249.056 175.831 248.298 175.634 248.104 174.529L248.51 174.172C249.403 173.947 249.712 173.943 250.406 173.386L250.339 172.889C251.851 171.893 252.501 170.406 253.127 168.779C254.9 158.785 255.526 150.668 258.32 140.524C258.315 140.031 258.533 138.607 258.604 138.047L256.858 137.851C253.57 139.393 248.957 144.368 245.263 143.467C238.419 146.921 230.342 151.962 225.096 157.65C216.305 144.473 210.092 143.706 196.193 138.24C193.466 150.81 191.774 158.068 191.022 170.99C189.64 169.526 187.59 167.479 186.344 165.985C186.028 166.528 186.175 167.111 185.636 168.182C184.736 167.969 185.142 166.714 184.23 166.353C183.751 167.248 184.357 167.617 183.974 168.858L183.642 168.95C181.955 168.21 181.288 167.104 181.691 165.402C182.648 161.366 179.932 157.074 180.202 152.667C179.295 149.693 178.358 146.728 177.392 143.773C177.219 142.366 176.49 139.752 176.124 138.288C173.295 139.555 169.132 140.76 166.073 141.178C166.505 136.138 171.046 133.871 174.1 130.141C178.239 125.086 180.949 119.554 183.75 113.705C184.362 112.427 186.205 108.821 187.43 108.428C193.109 125.669 198.31 136.908 216.749 142.928C217.64 141.23 215.606 134.883 215.022 132.774C218.122 133.921 221.128 135.345 224.301 136.283Z"/><path fill="#604C90" d="M224.301 136.283C248.545 131.195 260.163 112.191 274.949 95.1481C274.806 99.7589 274.993 108.006 274.594 112.194C271.587 108.741 267.512 118.205 266.448 120.188C260.504 129.65 257.292 130.925 248.075 136.684C240.847 141.542 228.827 145.561 220.015 144.061C218.321 143.772 217.819 143.231 216.749 142.928C217.64 141.23 215.606 134.883 215.022 132.774C218.122 133.921 221.128 135.345 224.301 136.283Z"/><path fill="#48317B" d="M248.075 136.684C248.337 135.553 257.754 127.968 258.662 125.661C259.422 123.732 258.652 121.384 260.501 120.353C261.321 120.77 261.255 121.459 262.253 122.399C264.269 122.386 264.371 120.57 266.448 120.188C260.504 129.65 257.292 130.925 248.075 136.684Z"/><path fill="#3E3E4D" d="M258.32 140.524L258.452 140.457C258.951 140.546 258.954 140.514 259.46 140.417C258.68 147.107 254.735 162.169 255.602 167.265C255.781 168.62 255.818 170.665 256.654 171.548C256.773 173.399 255.585 174.313 256.342 175.512C255.575 177.234 254.514 178.819 255.041 180.504C254.408 181.312 254.374 181.64 253.519 181.919C252.918 181.66 252.927 181.559 252.575 181.011C251.827 179.04 251.413 177.408 249.243 176.845C249.632 176.851 249.648 176.804 250.036 176.696L250.031 176.43C249.056 175.831 248.298 175.634 248.104 174.529L248.51 174.172C249.403 173.947 249.712 173.943 250.406 173.386L250.339 172.889C251.851 171.893 252.501 170.406 253.127 168.779C254.9 158.785 255.526 150.668 258.32 140.524Z"/><path fill="#48317B" d="M255.602 167.265C255.781 168.62 255.818 170.665 256.654 171.548C256.773 173.399 255.585 174.313 256.342 175.512C255.575 177.234 254.514 178.819 255.041 180.504C254.408 181.312 254.374 181.64 253.519 181.919C252.918 181.66 252.927 181.559 252.575 181.011C253.636 178.896 253.904 175.663 254.032 173.324C254.714 170.306 253.819 171.179 255.602 167.265Z"/><path fill="#39394F" d="M180.202 152.667C182.532 157.272 183.478 161.489 186.344 165.985C186.028 166.528 186.175 167.111 185.636 168.182C184.736 167.969 185.142 166.714 184.23 166.353C183.751 167.248 184.357 167.617 183.974 168.858L183.642 168.95C181.955 168.21 181.288 167.104 181.691 165.402C182.648 161.366 179.932 157.074 180.202 152.667Z"/><path fill="#39394F" d="M245.263 143.467C248.346 141.004 253.32 138.693 256.913 136.766L256.858 137.851C253.57 139.393 248.957 144.368 245.263 143.467Z"/><path fill="#3E3E4D" d="M256.913 136.766C257.86 136.126 259.05 135.213 260.155 135.305L260.426 135.701L260.17 136.878C259.34 138.158 259.351 137.18 258.604 138.047L256.858 137.851L256.913 136.766Z"/><path fill="#2E2F35" d="M258.604 138.047C259.351 137.18 259.34 138.158 260.17 136.878L259.46 140.417C258.954 140.514 258.951 140.546 258.452 140.457L258.32 140.524C258.315 140.031 258.533 138.607 258.604 138.047Z"/><path fill="#604C90" d="M99.9276 95.5637C100.834 96.7419 101.666 98.0554 102.487 99.3008C105.1 100.919 109.729 106.872 112.191 109.971C118.828 118.322 125.529 125.39 135.138 130.482C136.715 131.318 138.252 132.912 139.436 133.557C140.718 134.099 141.983 134.653 143.301 135.103C140.659 138.222 141.458 138.109 141.507 141.773C141.067 141.704 141.015 141.643 140.613 141.439L140.473 140.512L140.269 140.969C138.464 142.107 132.166 137.634 129.484 137.578C132.349 141.927 141.933 142.534 143.646 145.522C143.458 146.067 143.632 145.885 143.236 146.186C139.089 144.317 133.056 140.905 128.798 140.513C129.628 141.677 130.332 142.218 131.713 143.06C131.696 143.165 131.679 143.27 131.662 143.375L131.459 143.614C129.356 142.678 123.558 139.819 121.456 140.042L121.144 140.326C120.901 145.672 127.529 159.837 129.591 165.617C131.316 170.452 140.056 197.755 136.351 201.339C135.024 202.624 129.524 201.906 127.718 201.802C126.437 201.728 125.142 201.675 123.881 201.429C119.426 200.584 117.707 200.018 113.454 198.358C112.137 195.04 111.243 191.347 110.731 187.808C110.268 184.601 110.059 180.247 109.09 177.21C108.856 176.316 108.454 175.329 108.09 174.47C104.525 166.05 102.909 156.938 100.239 148.212C99.6757 146.369 99.1395 144.453 98.6979 142.57C96.0192 143.651 93.7318 145.216 91.0314 146.247C91.0666 145.092 90.9926 144.637 91.9705 143.937C91.7322 143.416 91.7781 142.064 91.7645 141.42C92.2689 141.046 92.7685 140.665 93.2631 140.278C94.6506 139.183 95.9885 137.935 96.6946 136.284C99.994 128.57 98.7341 105.448 99.9276 95.5637Z"/><path fill="#4F5065" d="M91.9705 143.937C94.4535 142.607 96.9864 141.543 99.5791 140.448L101.028 142.601C105.431 146.853 116.504 174.079 121.338 174.106C122.047 174.11 122.684 173.523 123.167 173.053C123.347 173.827 123.601 175.058 123.636 175.825C123.932 182.188 126.628 195.975 123.881 201.429C119.426 200.584 117.707 200.018 113.454 198.358C112.137 195.04 111.243 191.347 110.731 187.808C110.268 184.601 110.059 180.247 109.09 177.21C108.856 176.316 108.454 175.329 108.09 174.47C104.525 166.05 102.909 156.938 100.239 148.212C99.6757 146.369 99.1395 144.453 98.6979 142.57C96.0192 143.651 93.7318 145.216 91.0314 146.247C91.0666 145.092 90.9926 144.637 91.9705 143.937Z"/><path fill="#39394F" d="M91.9705 143.937C94.4535 142.607 96.9864 141.543 99.5791 140.448L101.028 142.601C100.632 145.104 105.855 164.383 107.667 167.087C108.765 165.177 109.708 163.372 111.15 161.699C110.67 166.211 110.132 170.716 109.536 175.213C109.43 175.982 109.162 176.624 109.09 177.21C108.856 176.316 108.454 175.329 108.09 174.47C104.525 166.05 102.909 156.938 100.239 148.212C99.6757 146.369 99.1395 144.453 98.6979 142.57C96.0192 143.651 93.7318 145.216 91.0314 146.247C91.0666 145.092 90.9926 144.637 91.9705 143.937Z"/><path fill="#39394F" d="M116.646 135.578C119.469 136.968 126.018 139.8 128.798 140.513C129.628 141.677 130.332 142.218 131.713 143.06C131.696 143.165 131.679 143.27 131.662 143.375L131.459 143.614C129.356 142.678 123.558 139.819 121.456 140.042L121.144 140.326C120.901 145.672 127.529 159.837 129.591 165.617C131.316 170.452 140.056 197.755 136.351 201.339C135.024 202.624 129.524 201.906 127.718 201.802C126.437 201.728 125.142 201.675 123.881 201.429C126.628 195.975 123.932 182.188 123.636 175.825C123.601 175.058 123.347 173.827 123.167 173.053C120.542 160.223 118.902 148.294 116.646 135.578Z"/><path fill="#30215C" d="M102.487 99.3008C105.1 100.919 109.729 106.872 112.191 109.971C118.828 118.322 125.529 125.39 135.138 130.482C136.715 131.318 138.252 132.912 139.436 133.557C140.718 134.099 141.983 134.653 143.301 135.103C140.659 138.222 141.458 138.109 141.507 141.773C141.067 141.704 141.015 141.643 140.613 141.439L140.473 140.512L140.269 140.969C138.464 142.107 132.166 137.634 129.484 137.578C112.999 125.461 104.276 122.915 102.487 99.3008Z"/><path fill="#604C90" d="M140.473 140.512C139.795 138.69 136.935 134.569 139.436 133.557C140.718 134.099 141.983 134.653 143.301 135.103C140.659 138.222 141.458 138.109 141.507 141.773C141.067 141.704 141.015 141.643 140.613 141.439L140.473 140.512Z"/><defs><linearGradient id="gradient_2" gradientUnits="userSpaceOnUse" x1="192.16861" y1="49.575813" x2="165.08888" y2="22.431087"><stop offset="0" stop-color="#252732"/><stop offset="1" stop-color="#3F3F4E"/></linearGradient></defs><path fill="url(#gradient_2)" d="M177.413 11.3103C183.658 10.4354 190.793 8.83816 196.304 13.098C204.53 19.6293 202.644 32.4051 199.731 41.2075C198.356 45.3622 194.877 47.5406 191.742 50.1373C182.299 57.9596 172.262 57.1413 161.091 59.0265C157.248 56.08 155.945 51.1127 155.342 46.5C154.725 41.7847 154.435 33.9247 156.942 29.8581C157.01 29.6857 157.081 29.5145 157.155 29.3446C161.296 19.7184 168.108 15.0322 177.413 11.3103Z"/><path fill="#4F5065" d="M177.413 11.3103C180.029 11.5066 183.777 14.4425 185.213 16.6237C183.022 22.4147 179.501 21.2071 177.177 24.7376C173.09 30.9494 172.288 38.4413 162.243 35.8846C159.376 35.1548 158.562 31.8932 156.942 29.8581C157.01 29.6857 157.081 29.5145 157.155 29.3446C161.296 19.7184 168.108 15.0322 177.413 11.3103Z"/><path fill="#39394F" d="M192.894 27.8019C195.957 27.3464 198.509 30.9628 195.725 32.5553C193.849 33.6282 190.462 34.4768 188.312 35.113C186.224 35.9737 185.523 34.8246 184.059 33.3876C186.158 29.2019 188.593 28.6854 192.894 27.8019Z"/><path fill="#39394F" d="M171.666 41.5318C172.121 41.6588 178.93 45.9835 179.318 46.3449L179.183 46.8113C176.181 46.778 168.828 46.1376 171.666 41.5318Z"/><path fill="#4F5065" d="M85.959 362.942C91.0457 360.958 131.238 360.769 139.644 360.482C146.836 360.237 158.952 360.126 166.646 360.283C168.824 360.328 176.848 361.763 179.721 362.086C189.847 363.222 200.164 363.371 209.65 367.471C211.86 368.426 213.839 369.706 215.829 370.593C210.201 369.991 205.73 370.798 201.31 370.427C200.031 371.699 196.34 372.736 194.721 372.849L194.096 372.602C193.93 372.013 193.915 371.863 193.845 371.276C192.933 370.543 192.468 370.713 191.153 370.724L132.585 372.288C133.739 372.715 134.924 372.654 136.138 372.675L136.113 373.051C134.091 374.42 125.961 373.647 123.227 373.987C120.53 374.322 115.226 375.99 113.026 377.392C112.265 376.158 111.993 375.375 110.576 375.032C107.962 374.399 104.399 376.078 101.804 376.949C100.497 376.469 97.624 375.25 96.4609 375.252C95.8917 375.593 93.6679 380.807 92.8662 382.227C92.9485 380.807 93.3139 377.49 92.9243 376.366C92.287 375.725 92.6627 375.881 91.7616 375.877L90.2372 376.918C90.6096 376.386 90.9323 376.161 90.882 375.673C90.1199 375.262 88.698 375.693 87.195 375.518L86.9086 375.484C84.5782 375.54 81.5877 375.698 79.3697 375.258C79.9208 368.351 83.3456 367.782 85.959 362.942Z"/><path fill="#2E2F35" d="M86.9086 375.484C87.8291 375.255 91.2128 375.132 92.4436 374.996C101.333 373.964 110.251 373.209 119.187 372.731C122.616 372.519 129.371 372.048 132.585 372.288C133.739 372.715 134.924 372.654 136.138 372.675L136.113 373.051C134.091 374.42 125.961 373.647 123.227 373.987C120.53 374.322 115.226 375.99 113.026 377.392C112.265 376.158 111.993 375.375 110.576 375.032C107.962 374.399 104.399 376.078 101.804 376.949C100.497 376.469 97.624 375.25 96.4609 375.252C95.8917 375.593 93.6679 380.807 92.8662 382.227C92.9485 380.807 93.3139 377.49 92.9243 376.366C92.287 375.725 92.6627 375.881 91.7616 375.877L90.2372 376.918C90.6096 376.386 90.9323 376.161 90.882 375.673C90.1199 375.262 88.698 375.693 87.195 375.518L86.9086 375.484Z"/><path fill="#2E2F35" d="M191.153 370.724C193.066 370.29 199.329 370.048 201.31 370.427C200.031 371.699 196.34 372.736 194.721 372.849L194.096 372.602C193.93 372.013 193.915 371.863 193.845 371.276C192.933 370.543 192.468 370.713 191.153 370.724Z"/><path fill="#2D2D2F" d="M78.7089 362.476C80.6733 362.204 82.1588 362.093 84.1463 362.436C84.7909 362.547 85.4719 362.881 85.959 362.942C83.3456 367.782 79.9208 368.351 79.3697 375.258C81.5877 375.698 84.5782 375.54 86.9086 375.484L87.195 375.518C88.698 375.693 90.1199 375.262 90.882 375.673C90.9323 376.161 90.6096 376.386 90.2372 376.918C88.8155 377.625 87.2097 378.281 86.2058 379.501C86.0272 380.267 85.8684 380.854 85.6312 381.604L85.3048 381.685C83.8109 380.295 83.3257 378.177 81.5052 377.73C80.6122 377.969 80.9144 377.77 80.2766 378.417C80.0686 379.697 81.4882 383.727 82.6062 384.18C82.988 383.458 83.249 382.632 83.8757 382.394C85.7548 384.145 83.0255 387.122 84.4327 388.967C85.3716 389.298 86.8105 389.397 87.2796 389.872L87.2061 390.476C86.4469 391.021 83.7329 391.045 82.5988 391.128C85.4843 394.38 86.1849 394.46 90.236 395.119C94.2038 395.764 108.771 392.466 110.945 393.826L110.886 394.221C109.342 395.143 102.834 395.711 100.899 395.739C95.1034 395.823 89.7772 396.219 84.0016 396.84C81.2448 397.136 78.2403 397.094 75.3628 397.438L60.631 399.122C58.9579 399.33 55.4449 400.112 54.0194 400.015C52.9923 400.45 52.1931 400.704 51.4821 399.609C47.7003 393.788 47.0968 385.575 47.8362 379.054C48.1782 376.269 48.8226 374.012 50.8867 371.987C57.0004 365.989 70.4755 362.641 78.7089 362.476Z"/><path fill="#4F5065" d="M78.7089 362.476C80.6733 362.204 82.1588 362.093 84.1463 362.436C84.7909 362.547 85.4719 362.881 85.959 362.942C83.3456 367.782 79.9208 368.351 79.3697 375.258C78.2009 375.184 76.3998 375.151 75.409 375.844C75.1549 376.393 74.9083 377.241 74.337 377.393C69.8345 378.587 64.8369 378.287 60.192 378.92C57.4911 379.288 53.2431 381.229 51.1175 380.746C50.5343 379.917 48.7885 379.308 47.8362 379.054C48.1782 376.269 48.8226 374.012 50.8867 371.987C57.0004 365.989 70.4755 362.641 78.7089 362.476Z"/><path fill="#3E3E4D" d="M78.7089 362.476C80.6733 362.204 82.1588 362.093 84.1463 362.436C84.7909 362.547 85.4719 362.881 85.959 362.942C83.3456 367.782 79.9208 368.351 79.3697 375.258C78.2009 375.184 76.3998 375.151 75.409 375.844C75.1702 369.45 81.6651 365.252 81.1653 362.628L78.7089 362.476Z"/><path fill="#3E3E4D" d="M54.0194 400.015C52.9923 400.45 52.1931 400.704 51.4821 399.609C47.7003 393.788 47.0968 385.575 47.8362 379.054C48.7885 379.308 50.5343 379.917 51.1175 380.746C49.6079 385.108 56.4011 393.954 54.0194 400.015Z"/><path fill="#4F5065" d="M31.2959 93.0629C39.0117 99.3937 46.4096 106.195 54.2467 112.407C55.4015 113.323 56.6347 114.333 57.7407 115.306C58.0893 118.539 58.058 126.208 60.8031 127.982C66.9834 131.975 78.5586 136.199 86.025 136.074C88.6593 136.03 92.4465 130.921 94.0155 128.864C93.4285 130.911 91.2081 139.707 91.7645 141.42C91.7781 142.064 91.7322 143.416 91.9705 143.937C90.9926 144.637 91.0666 145.092 91.0314 146.247C82.5092 148.224 83.7048 148.63 74.7042 144.94C66.3998 140.931 58.0462 136.877 49.7588 132.818C48.5879 132.244 47.2984 131.861 46.0116 131.639C44.5581 131.007 43.123 130.333 41.7083 129.618C38.1469 117.572 35.6786 104.959 31.2959 93.0629Z"/><path fill="#39394F" d="M43.9482 118.851C47.7425 120.483 54.4514 122.988 55.366 127.356C55.1289 127.428 54.8894 127.492 54.6478 127.547C51.1037 128.339 47.8869 126.451 44.9854 124.667C44.4444 122.768 44.097 120.82 43.9482 118.851Z"/><path fill="#4F5065" d="M316.662 115.762C318.5 113.608 322.664 110.394 324.9 108.435C330.686 103.364 336.988 98.4399 342.668 93.2747C341.171 97.2467 339.535 102.882 338.195 107.023C338.415 110.682 333.799 127.47 331.507 129.926C328.154 133.519 296.728 147.091 291.68 147.103C290.646 147.105 289.575 146.937 288.829 146.157C288.546 145.86 288.288 145.54 288.033 145.22C285.135 144.061 284.491 138.355 283.933 135.659C292.549 137.214 305.943 133.318 313.356 128.388C316.3 126.43 316.387 119.314 316.662 115.762Z"/><path fill="#2E2F35" d="M319.183 122.538C321.887 118.759 333.822 110.342 338.195 107.023C338.415 110.682 333.799 127.47 331.507 129.926C328.154 133.519 296.728 147.091 291.68 147.103C290.646 147.105 289.575 146.937 288.829 146.157C288.546 145.86 288.288 145.54 288.033 145.22C290.96 144.907 293.904 144.561 296.589 143.285C303.945 139.789 315.657 134.892 320.088 127.734C319.672 125.828 319.393 124.503 319.183 122.538Z"/><path fill="#4F5065" d="M118.109 277.674C123.295 277.192 131.673 277.286 137.234 277.132C153.721 276.569 170.22 276.436 186.715 276.733C188.615 278.781 189.376 280.043 190.707 282.413C191.716 284.386 190.708 285.379 189.501 286.914C180.41 287.189 171.382 288.143 162.273 288.145C158.635 288.146 154.776 288.828 151.122 288.933C147.858 289.224 143.771 288.803 140.626 289.26C132.858 290.388 125.472 289.962 117.778 290.252C117.415 288.357 117.002 286.457 117.357 284.539C117.696 282.704 117.924 279.585 118.109 277.674Z"/><path fill="#2E2F35" d="M190.707 282.413C191.716 284.386 190.708 285.379 189.501 286.914C180.41 287.189 171.382 288.143 162.273 288.145C158.635 288.146 154.776 288.828 151.122 288.933C147.858 289.224 143.771 288.803 140.626 289.26C132.858 290.388 125.472 289.962 117.778 290.252C117.415 288.357 117.002 286.457 117.357 284.539C131.306 284.355 145.043 283.629 159.001 283.289C169.13 283.042 180.9 283.943 190.707 282.413Z"/><path fill="#604C90" d="M186.802 78.9498C187.539 86.8942 187.105 95.7776 187.037 103.872C187.105 104.685 187.23 107.979 187.43 108.428C186.205 108.821 184.362 112.427 183.75 113.705C180.949 119.554 178.239 125.086 174.1 130.141C171.046 133.871 166.505 136.138 166.073 141.178C169.132 140.76 173.295 139.555 176.124 138.288C176.49 139.752 177.219 142.366 177.392 143.773C176.339 142.545 176.281 140.748 174.795 140.776C168.049 140.903 161.75 144.932 155.46 147.068C152.21 148.176 148.739 149.332 145.644 149.919C144.12 149.078 142.839 148.485 141.265 147.767C140.756 147.587 140.98 147.665 140.565 147.077C139.642 145.688 135.136 144.82 133.459 144.406L131.459 143.614L131.662 143.375C131.679 143.27 131.696 143.165 131.713 143.06C130.332 142.218 129.628 141.677 128.798 140.513C133.056 140.905 139.089 144.317 143.236 146.186C143.632 145.885 143.458 146.067 143.646 145.522C141.933 142.534 132.349 141.927 129.484 137.578C132.166 137.634 138.464 142.107 140.269 140.969L140.473 140.512L140.613 141.439C141.015 141.643 141.067 141.704 141.507 141.773C141.458 138.109 140.659 138.222 143.301 135.103C144.191 135.323 147.036 136.043 147.694 136.373C149.366 136.748 149.831 136.595 151.411 136.128C153.972 134.825 157.731 132.793 160.295 131.776C170.545 122.544 182.785 92.6331 186.802 78.9498Z"/><path fill="#48317B" d="M187.037 103.872C187.105 104.685 187.23 107.979 187.43 108.428C186.205 108.821 184.362 112.427 183.75 113.705C180.949 119.554 178.239 125.086 174.1 130.141C171.046 133.871 166.505 136.138 166.073 141.178C169.132 140.76 173.295 139.555 176.124 138.288C176.49 139.752 177.219 142.366 177.392 143.773C176.339 142.545 176.281 140.748 174.795 140.776C168.049 140.903 161.75 144.932 155.46 147.068C152.21 148.176 148.739 149.332 145.644 149.919C144.12 149.078 142.839 148.485 141.265 147.767C140.756 147.587 140.98 147.665 140.565 147.077C139.642 145.688 135.136 144.82 133.459 144.406L131.459 143.614L131.662 143.375C131.679 143.27 131.696 143.165 131.713 143.06C130.332 142.218 129.628 141.677 128.798 140.513C133.056 140.905 139.089 144.317 143.236 146.186C143.632 145.885 143.458 146.067 143.646 145.522C141.933 142.534 132.349 141.927 129.484 137.578C132.166 137.634 138.464 142.107 140.269 140.969L140.473 140.512L140.613 141.439C141.015 141.643 141.067 141.704 141.507 141.773C141.458 138.109 140.659 138.222 143.301 135.103C144.191 135.323 147.036 136.043 147.694 136.373C149.366 136.748 149.831 136.595 151.411 136.128C153.972 134.825 157.731 132.793 160.295 131.776C160.853 133.89 161.798 136.564 162.768 138.53C165.692 138.487 168.113 135.613 170.042 133.845C178.131 126.434 181.26 116.367 187.004 107.326C186.964 106.11 186.992 105.087 187.037 103.872Z"/><path fill="#604C90" d="M151.411 136.128C153.972 134.825 157.731 132.793 160.295 131.776C160.853 133.89 161.798 136.564 162.768 138.53C160.979 139.278 157.656 140.952 155.971 141.232C153.437 142.244 150.318 143.815 147.817 145.02C146.201 144.307 144.58 143.608 142.953 142.922C141.919 142.38 142.063 142.638 141.507 141.773C141.458 138.109 140.659 138.222 143.301 135.103C144.191 135.323 147.036 136.043 147.694 136.373C149.366 136.748 149.831 136.595 151.411 136.128Z"/><path fill="#4F5065" d="M151.411 136.128C153.972 134.825 157.731 132.793 160.295 131.776C160.853 133.89 161.798 136.564 162.768 138.53C160.979 139.278 157.656 140.952 155.971 141.232C156.551 140.04 156.893 139.442 156.54 138.168C155.36 136.522 153.206 137.247 151.411 136.128Z"/><path fill="#4F5065" d="M143.301 135.103C144.191 135.323 147.036 136.043 147.694 136.373C145.551 139.105 144.85 139.923 142.953 142.922C141.919 142.38 142.063 142.638 141.507 141.773C141.458 138.109 140.659 138.222 143.301 135.103Z"/><path fill="#39394F" d="M166.073 141.178C169.132 140.76 173.295 139.555 176.124 138.288C176.49 139.752 177.219 142.366 177.392 143.773C176.339 142.545 176.281 140.748 174.795 140.776C168.049 140.903 161.75 144.932 155.46 147.068C152.21 148.176 148.739 149.332 145.644 149.919C144.12 149.078 142.839 148.485 141.265 147.767C140.756 147.587 140.98 147.665 140.565 147.077C142.147 147.137 143.161 146.885 144.546 146.905C145.91 147.296 147.094 147.362 148.503 147.19C151.139 146.868 164.734 142.913 166.073 141.178Z"/><path fill="#4F5065" d="M71.1763 341.91C71.1557 337.982 71.3374 334.106 74.7553 331.53C81.1333 326.724 90.0894 326.394 97.7816 326.092C100.221 325.996 105.824 325.304 107.342 327.255C107.586 328.852 108.001 329.466 108.988 330.804C107.157 333.937 103.988 338.87 102.651 342.018C102.683 343.957 102.923 345.909 103.124 347.84C96.2597 350.049 81.2341 350.733 73.7325 350.807C72.3348 347.417 71.6007 345.518 71.1763 341.91Z"/><path fill="#2D2D2F" d="M101.183 336.356C100.375 337.485 99.3806 341.351 100.177 342.662C101.258 343.033 101.677 342.611 102.651 342.018C102.683 343.957 102.923 345.909 103.124 347.84C96.2597 350.049 81.2341 350.733 73.7325 350.807C72.3348 347.417 71.6007 345.518 71.1763 341.91C75.7797 338.435 88.3119 337.996 94.0675 337.522C96.0199 337.361 99.5392 337.215 101.183 336.356Z"/><path fill="#3E3E4D" d="M107.342 327.255C107.586 328.852 108.001 329.466 108.988 330.804C107.157 333.937 103.988 338.87 102.651 342.018C101.677 342.611 101.258 343.033 100.177 342.662C99.3806 341.351 100.375 337.485 101.183 336.356C105.305 334.355 107.169 332.005 107.342 327.255Z"/><path fill="#4F5065" d="M194.07 325.541C195.009 325.158 195.881 324.923 196.891 324.809C200.921 324.356 220.336 324.249 223.784 325.528C224.751 325.886 225.381 326.673 225.755 327.609C226.245 328.839 226.324 330.691 226.167 332L228.293 333.379C227.815 333.93 227.416 334.402 226.972 334.98C225.34 335.067 220.507 334.635 218.627 334.523C213.459 334.196 208.284 333.972 203.107 333.85C193.791 333.613 184.615 334.739 175.237 333.983C164.908 333.149 156.098 329.413 146.57 325.662C147.733 325.697 148.875 325.672 150.036 325.617C159.363 325.177 168.685 325.235 178.02 325.26C183.349 325.275 188.751 325.169 194.07 325.541Z"/><path fill="#2E2F35" d="M194.07 325.541C195.009 325.158 195.881 324.923 196.891 324.809C200.921 324.356 220.336 324.249 223.784 325.528C224.751 325.886 225.381 326.673 225.755 327.609C226.245 328.839 226.324 330.691 226.167 332C219.7 330.138 214.856 329.366 208.216 328.398C204.229 327.816 197.616 326.867 194.07 325.541Z"/><path fill="#4F5065" d="M88.0161 288.723C87.8935 287.343 89.5008 284.753 90.4868 283.769C94.4183 279.846 100.465 278.565 105.828 278.466C105.658 281.17 105.333 283.56 104.968 286.249C104.681 288.697 104.311 292.534 101.973 293.783C95.5833 297.195 90.669 294.503 88.0161 288.723Z"/><path fill="#2E2F35" d="M88.0161 288.723C93.9568 287.834 98.6511 286.37 104.968 286.249C104.681 288.697 104.311 292.534 101.973 293.783C95.5833 297.195 90.669 294.503 88.0161 288.723Z"/><path fill="#2D2D2F" d="M109.141 346.304C107.688 343.472 108.843 334.077 111.509 333.124C112.302 333.497 112.403 333.825 112.901 334.603C115.07 335.787 116.727 337.368 118.963 338.518C125.043 341.645 131.449 343.533 137.88 345.757C138.453 345.955 138.892 346.129 139.15 346.624C137.778 346.751 135.296 346.551 133.205 346.655C126.459 346.991 115.578 349.525 109.487 346.434C109.123 346.249 109.562 346.371 109.141 346.304Z"/><path fill="#3E3E4D" d="M109.141 346.304C107.688 343.472 108.843 334.077 111.509 333.124C112.302 333.497 112.403 333.825 112.901 334.603C111.285 338.398 113.481 342.963 109.141 346.304Z"/><path fill="#3E3E4D" d="M117.873 290.736C123.987 290.905 130.364 292.269 136.564 292.216C154.809 292.06 173.028 292.026 191.266 291.382C193.79 291.292 196.764 291.74 199.375 291.717C209.861 291.624 220.516 291.652 230.99 291.927C233.3 291.987 244.544 292.139 246.148 292.669L245.964 292.983C235.092 293.123 224.016 292.987 213.119 293.006L151.638 293.231C145.32 293.269 139.004 293.504 132.7 293.935C128.981 294.152 124.5 294.587 120.845 294.473C119.38 293.238 118.768 292.386 117.873 290.736Z"/><path fill="#2E2F35" d="M91.6684 320.676C92.8444 318.207 94.3667 315.246 94.996 312.579C95.7466 309.589 95.4674 304.941 96.5411 302.175C97.2093 300.454 104.45 300.11 104.426 303.679C104.411 305.834 104.889 310.494 103.659 312.331C104.091 313.662 104.042 316.982 104.054 318.533C104.192 317.554 104.064 317.129 104.661 316.569C106.736 317.94 105.035 321.063 102.65 320.826C101.356 320.697 100.109 321.061 98.8469 320.381C97.2874 319.573 96.1596 320.147 94.4585 319.351L91.6684 320.676Z"/><path fill="#2D2D2F" d="M103.659 312.331C104.091 313.662 104.042 316.982 104.054 318.533C104.192 317.554 104.064 317.129 104.661 316.569C106.736 317.94 105.035 321.063 102.65 320.826C101.356 320.697 100.109 321.061 98.8469 320.381C97.2874 319.573 96.1596 320.147 94.4585 319.351C96.9192 318.025 100.4 316.797 103.094 315.678L103.659 312.331Z"/><path fill="#2E2F35" d="M104.054 318.533C104.192 317.554 104.064 317.129 104.661 316.569C106.736 317.94 105.035 321.063 102.65 320.826C101.356 320.697 100.109 321.061 98.8469 320.381C100.67 320.258 103.395 320.502 104.054 318.533Z"/><path fill="#3E3E4D" d="M192.015 276.275C196.207 276.619 200.006 277.04 203.851 278.837C206.467 279.545 209.778 279.886 212.498 280.26C218.929 281.143 226.343 281.958 232.446 284.257C220.32 283.831 208.187 283.651 196.054 283.718C194.911 283.86 193.21 283.808 192.01 283.806C192.297 281.131 192.148 278.935 192.015 276.275Z"/><path fill="#39394F" d="M192.015 276.275C196.207 276.619 200.006 277.04 203.851 278.837L203.562 278.906C199.971 279.736 194.587 278.008 192.316 280.111C191.43 282.514 194.14 281.949 194.713 282.343C193.815 282.844 193.659 282.089 192.508 282.693L192.552 283.09C193.713 283.828 194.592 283.294 196.054 283.718C194.911 283.86 193.21 283.808 192.01 283.806C192.297 281.131 192.148 278.935 192.015 276.275Z"/><path fill="#604C90" d="M256.342 175.512C262.708 168.881 267.093 165.468 269.922 156.389C270.47 154.628 271.735 150.787 273.489 150.143C273.899 150.344 274.119 150.376 274.189 150.944C275.858 164.513 264.236 173.294 255.041 180.504C254.514 178.819 255.575 177.234 256.342 175.512Z"/><path fill="#39394F" d="M164.002 156.942C164.927 157.062 164.973 157.147 165.444 157.753C165.821 159.878 163.953 162.692 163.34 164.781C161.497 171.058 160.747 178.567 154.908 182.555C154.789 182.597 154.411 182.61 154.265 182.62C151.154 180.086 157.003 171.579 157.625 168.857C158.737 163.993 159.306 160.064 164.002 156.942Z"/><path fill="#3E3E4D" d="M135.486 378.268C136.105 379.033 135.87 378.967 136.669 379.253C137.521 378.654 137.292 377.576 138.033 376.948C138.668 377.202 138.471 377.13 138.912 377.843C139.122 380.399 136.142 381.472 136.859 383.601C138.065 383.719 138.069 382.704 139.248 383.066C139.685 384.275 139.293 385.284 138.979 386.542C137.893 387.743 137.449 388.273 135.918 388.966C133.367 390.12 126.097 390.698 127.212 386.072C126.364 380.679 129.174 380.767 133.336 379.387L133.559 378.46C134.266 377.967 134.448 378.176 135.486 378.268Z"/><path fill="#2E2F35" d="M135.486 378.268C136.105 379.033 135.87 378.967 136.669 379.253C137.521 378.654 137.292 377.576 138.033 376.948C138.668 377.202 138.471 377.13 138.912 377.843C139.122 380.399 136.142 381.472 136.859 383.601C138.065 383.719 138.069 382.704 139.248 383.066C139.685 384.275 139.293 385.284 138.979 386.542C137.893 387.743 137.449 388.273 135.918 388.966C133.367 390.12 126.097 390.698 127.212 386.072C132.29 389.806 134.294 387.723 136.422 382.662C136.023 381.382 135.28 379.52 135.486 378.268Z"/><path fill="#2E2F35" d="M307.596 378.437C307.752 378.47 307.907 378.507 308.062 378.547C311.786 379.53 310.675 384.262 309.691 386.911C308.483 390.167 306.682 392.48 303.657 394.153C298.655 393.332 301.187 387.031 302.531 384.183C303.671 381.767 305.475 379.983 307.596 378.437Z"/><path fill="#39394F" d="M161.394 209.67L161.72 210.127C161.522 211.69 158.711 216.686 158.132 219.243C156.185 227.838 156.978 242.654 150.701 249.109C149.283 247.61 151.791 242.272 152.543 240.621C158.228 228.147 150.361 220.34 161.394 209.67Z"/><path fill="#2E2F35" d="M121.971 305.865C126.338 305.587 129.891 306.01 134.153 306.836C132.663 308.697 131.18 310.688 129.725 312.587C129.027 313.462 128.276 314.314 127.546 315.164C125.572 313.496 120.498 308.82 121.183 306.109L121.971 305.865Z"/><path fill="#3E3E4D" d="M280.458 193.355C286.523 196.266 280.412 205.746 277.44 208.761C277.048 209.025 276.732 208.993 276.256 209.026C273.29 206.975 278.831 195.944 280.458 193.355Z"/><path fill="#30215C" d="M250.339 172.889L250.406 173.386C249.712 173.943 249.403 173.947 248.51 174.172L248.104 174.529C248.298 175.634 249.056 175.831 250.031 176.43L250.036 176.696C249.648 176.804 249.632 176.851 249.243 176.845C247.933 177.017 239.637 181.071 239.016 178.019C239.479 176.551 241.531 174.276 242.964 173.512C243.905 173.095 248.705 173.058 250.339 172.889Z"/><path fill="#39394F" d="M250.339 172.889L250.406 173.386C249.712 173.943 249.403 173.947 248.51 174.172C246.687 173.619 245.302 173.854 243.416 174.006L242.964 173.512C243.905 173.095 248.705 173.058 250.339 172.889Z"/><path fill="#48317B" d="M184.122 178.322C186.145 178.941 187.584 181.005 188.834 182.615C188.344 185.313 187.981 188.654 187.608 191.414L187.456 191.746L187.067 191.799C185.441 190.243 184.079 180.695 184.122 178.322Z"/><path fill="#39394F" d="M139.321 306.952C139.377 307.234 136.826 314.914 136.475 315.616C134.676 316.261 132.873 316.802 131.049 317.363C130.776 315.011 137.641 308.603 139.321 306.952Z"/><path fill="#39394F" d="M228.293 333.379C233.227 334.159 235.523 333.493 240.268 335.549C235.734 335.584 231.488 335.504 226.972 334.98C227.416 334.402 227.815 333.93 228.293 333.379Z"/><path fill="#3E3E4D" d="M100.773 264.825C102.436 265.345 104.608 270.181 105.446 271.842C100.161 271.797 100.761 269.133 100.773 264.825Z"/><defs><linearGradient id="gradient_3" gradientUnits="userSpaceOnUse" x1="138.25233" y1="151.04828" x2="140.76604" y2="147.4622"><stop offset="0" stop-color="#48416D"/><stop offset="1" stop-color="#39384F"/></linearGradient></defs><path fill="url(#gradient_3)" d="M133.459 144.406C135.136 144.82 139.642 145.688 140.565 147.077C140.98 147.665 140.756 147.587 141.265 147.767C141.061 147.893 140.858 148.019 140.655 148.144C140.624 149.718 142.951 152.439 142.471 154.027L142.153 154.166C141.418 153.646 140.08 149.464 138.842 148.29C137.016 146.56 135.559 145.677 133.459 144.406Z"/><path fill="#7344B1" d="M215.175 0L222.384 0C223.986 2.6999 225.163 4.27363 227.151 6.59952C229.056 8.93848 236.047 14.3502 236.895 16.9309C238.409 21.5437 238.951 30.5745 238.012 35.2801C236.549 42.6091 227.765 46.0317 223.604 51.3653C222.567 51.8896 221.522 52.4285 220.479 52.9378C219.594 52.3934 218.315 50.7112 217.583 49.8352C222.459 44.081 223.485 44.6042 225.863 36.3856C228.092 31.6927 228.982 25.4864 229.279 20.3518C224.546 12.5263 217.839 8.85866 215.175 0Z"/></svg>